<svg width="114" height="20" viewBox="0 0 114 20" fill="none" xmlns="http://www.w3.org/2000/svg">
<mask id="mask0_153_343" style="mask-type:luminance" maskUnits="userSpaceOnUse" x="0" y="0" width="97" height="17">
<path d="M96.9 0H0V17H96.9V0Z" fill="white"/>
</mask>
<g mask="url(#mask0_153_343)">
<path d="M9.00014 0L6.87472 6.49429H0L5.56278 10.5057L3.43736 17L9.00014 12.9886L14.5629 17L12.4375 10.5057L18.0003 6.49429H11.1256L9.00014 0Z" fill="#E02626"/>
<mask id="mask1_153_343" style="mask-type:luminance" maskUnits="userSpaceOnUse" x="0" y="0" width="97" height="17">
<path d="M96.9 0H0V17H96.9V0Z" fill="white"/>
</mask>
<g mask="url(#mask1_153_343)">
<g opacity="0.5">
<mask id="mask2_153_343" style="mask-type:luminance" maskUnits="userSpaceOnUse" x="55" y="-4" width="26" height="22">
<path d="M80.7659 -3.16797H55.5879V17.396H80.7659V-3.16797Z" fill="white"/>
</mask>
<g mask="url(#mask2_153_343)">
<path d="M68.1729 0L66.0514 6.49429H59.1727L64.7355 10.5057L62.6141 17L68.1729 12.9886L73.7356 17L71.6142 10.5057L77.173 6.49429H70.2983L68.1729 0Z" fill="white"/>
</g>
</g>
<g opacity="0.5">
<mask id="mask3_153_343" style="mask-type:luminance" maskUnits="userSpaceOnUse" x="75" y="-4" width="26" height="22">
<path d="M100.489 -3.16797H75.3107V17.396H100.489V-3.16797Z" fill="white"/>
</mask>
<g mask="url(#mask3_153_343)">
<path d="M87.8995 0L85.7741 6.49429H78.8994L84.4622 10.5057L82.3368 17L87.8995 12.9886L93.4623 17L91.3369 10.5057L96.8997 6.49429H90.025L87.8995 0Z" fill="white"/>
</g>
</g>
</g>
<path d="M28.5396 0L26.4141 6.49429H19.5394L25.1022 10.5057L22.9768 17L28.5396 12.9886L34.1023 17L31.9769 10.5057L37.5397 6.49429H30.665L28.5396 0Z" fill="#E02626"/>
<path d="M48.45 0L46.3245 6.49429H39.4498L45.0126 10.5057L42.8872 17L48.45 12.9886L54.0127 17L51.8873 10.5057L57.4501 6.49429H50.5754L48.45 0Z" fill="#E02626"/>
</g>
</svg>
