<svg width="30" height="20" viewBox="0 0 30 20" fill="none" xmlns="http://www.w3.org/2000/svg">
<g clip-path="url(#clip0_308_225)">
<path d="M1.65184 16.5749H28.3482C29.2592 16.5749 30 17.3029 30 18.1982C30 19.0934 29.2592 19.8214 28.3482 19.8214H1.65184C0.740827 19.8214 0 19.0934 0 18.1982C0 17.3029 0.740827 16.5749 1.65184 16.5749Z" fill="white"/>
<path d="M28.3482 11.623H1.65184C0.740827 11.623 0 10.895 0 9.99975C0 9.1045 0.740827 8.37649 1.65184 8.37649H28.3482C29.2592 8.37649 30 9.1045 30 9.99975C30 10.895 29.2592 11.623 28.3482 11.623Z" fill="white"/>
<path d="M28.3482 3.42508H1.65184C0.740827 3.42508 0 2.69707 0 1.80182C0 0.906575 0.740827 0.17857 1.65184 0.17857H28.3482C29.2592 0.17857 30 0.906575 30 1.80182C30 2.69707 29.2592 3.42508 28.3482 3.42508Z" fill="white"/>
</g>
<defs>
<clipPath id="clip0_308_225">
<rect width="30" height="19.6429" fill="white" transform="matrix(1 0 0 -1 0 19.8214)"/>
</clipPath>
</defs>
</svg>
