<svg width="33" height="34" viewBox="0 0 33 34" fill="none" xmlns="http://www.w3.org/2000/svg">
<rect x="0.5" y="0.5625" width="32" height="32" stroke="black"/>
<path d="M24.0625 9H24.0763M9.625 2.8125H23.375C27.172 2.8125 30.25 5.89054 30.25 9.6875V23.4375C30.25 27.2345 27.172 30.3125 23.375 30.3125H9.625C5.82804 30.3125 2.75 27.2345 2.75 23.4375V9.6875C2.75 5.89054 5.82804 2.8125 9.625 2.8125ZM22 15.6962C22.1697 16.8406 21.9742 18.0093 21.4414 19.0361C20.9086 20.063 20.0656 20.8957 19.0322 21.4158C17.9989 21.9359 16.8279 22.1169 15.6857 21.9332C14.5435 21.7494 13.4884 21.2101 12.6704 20.3921C11.8524 19.5741 11.3131 18.519 11.1293 17.3768C10.9456 16.2346 11.1266 15.0636 11.6467 14.0303C12.1668 12.9969 12.9995 12.1539 14.0264 11.6211C15.0532 11.0883 16.2219 10.8928 17.3663 11.0625C18.5335 11.2356 19.6142 11.7795 20.4486 12.6139C21.283 13.4483 21.8269 14.529 22 15.6962Z" stroke="white" stroke-width="2" stroke-linecap="round" stroke-linejoin="round"/>
</svg>
