<svg width="650" height="60" viewBox="0 0 650 60" fill="none" xmlns="http://www.w3.org/2000/svg">
<g clip-path="url(#clip0_153_449)">
<path d="M2.50844 58.3376V2.36795H35.1966C50.0121 2.36795 57.7725 8.56067 57.7725 19.5351C57.7725 30.5095 53.3044 33.6451 42.6435 34.9777V35.84C48.4443 37.3294 50.2472 40.073 52.3637 44.3843L59.3403 58.4159H41.2325L34.5695 44.6979C32.5314 40.5433 30.8852 39.3675 24.7709 39.3675H18.343V58.4159H2.50844V58.3376ZM18.2646 27.6091H35.0398C39.6647 27.6091 41.3109 26.7469 41.3109 22.0435C41.3109 17.3402 39.6647 16.5563 35.0398 16.5563H18.2646V27.6875V27.6091Z" fill="white"/>
<path d="M60.5945 30.3528C60.5945 12.8721 72.1961 1.50568 91.6365 1.50568C111.077 1.50568 122.992 12.8721 122.992 30.3528C122.992 47.8335 111.626 59.1998 91.6365 59.1998C71.6474 59.1998 60.5945 47.8335 60.5945 30.3528ZM106.295 30.3528C106.295 19.2215 103.003 16.5563 91.6365 16.5563C80.2701 16.5563 77.3697 19.2215 77.3697 30.3528C77.3697 41.484 80.2701 44.1492 91.6365 44.1492C103.003 44.1492 106.295 41.484 106.295 30.3528Z" fill="white"/>
<path d="M128.793 58.3376V2.36795H144.549V44.2276H176.924V58.3376H128.871H128.793Z" fill="white"/>
<path d="M182.568 58.3376V2.36795H198.324V44.2276H230.698V58.3376H182.646H182.568Z" fill="white"/>
<path d="M236.421 58.3376V2.36795H252.177V58.4159H236.421V58.3376Z" fill="white"/>
<path d="M258.761 58.3376V2.36795H275.458L290.979 23.3762L299.21 36.2319H300.308L299.524 24.0033V2.36795H315.28V58.4159H298.583L282.043 36.859L274.91 25.8062H273.812L274.518 36.5455V58.4159H258.761V58.3376Z" fill="white"/>
<path d="M321.081 30.3528C321.081 12.8721 333.152 1.50568 353.533 1.50568C373.915 1.50568 383.792 9.89328 383.792 23.7681V24.3168H366.232V23.7681C366.232 18.5944 363.019 16.5563 353.142 16.5563C343.265 16.5563 337.856 19.2215 337.856 30.3528C337.856 41.484 340.913 44.1492 352.358 44.1492C363.802 44.1492 367.33 43.6005 368.114 39.2891H350.868V27.7659H383.948V58.3376H369.29V46.3441H368.427C366.938 52.8503 362.156 59.1214 349.065 59.1214C335.974 59.1214 321.159 47.7551 321.159 30.2744L321.081 30.3528Z" fill="white"/>
<path d="M409.66 45.0115V25.8846H400.645V19.4567H425.886V25.8846H416.872V45.0115H409.738H409.66Z" fill="#E02727"/>
<path d="M428.316 45.0115V19.4567H435.45V28.9418H447.365V19.4567H454.498V45.0115H447.365V35.3697H435.45V45.0115H428.316Z" fill="#E02727"/>
<path d="M457.634 45.0115V19.4567H480.288V25.8846H464.767V28.9418H479.739V35.3697H464.767V38.5836H480.288V45.0115H457.634Z" fill="#E02727"/>
<path d="M500.356 30.7447C500.356 9.89328 512.741 1.50568 529.046 1.50568C545.351 1.50568 555.62 9.18778 555.62 20.7109V21.4948H538.061V20.7109C538.061 16.8699 535.396 16.5563 529.046 16.5563C522.697 16.5563 517.288 17.8105 517.288 27.6091V30.5879H518.385C520.894 26.9036 526.146 23.7681 535.631 23.7681C549.505 23.7681 557.031 28.8634 557.031 40.5433C557.031 52.2232 548.095 59.1998 530.692 59.1998C513.29 59.1998 500.434 50.1067 500.434 30.7447H500.356ZM540.412 39.3675C540.412 35.6832 538.688 34.429 529.673 34.429C520.658 34.429 518.15 35.6832 518.15 39.3675C518.15 43.0517 519.875 44.0708 529.673 44.0708C539.472 44.0708 540.412 42.6598 540.412 39.3675Z" fill="white"/>
<path d="M562.988 58.3376V2.36795H578.745V58.4159H562.988V58.3376Z" fill="white"/>
<path d="M581.958 58.3375L603.123 30.8231V29.7256L581.958 2.28955H602.496L616.058 20.3974H617.155L629.932 2.28955H650.47L629.384 30.0392V31.1366L650.47 58.3375H629.932L616.45 40.073H615.352L602.496 58.3375H581.958Z" fill="white"/>
</g>
<defs>
<clipPath id="clip0_153_449">
<rect width="650" height="58.3997" fill="white" transform="translate(0 0.800171)"/>
</clipPath>
</defs>
</svg>
