<?xml version="1.0" encoding="UTF-8"?>
<svg id="Layer_2" xmlns="http://www.w3.org/2000/svg" version="1.1" viewBox="0 0 829.2 74.5">
  <!-- Generator: Adobe Illustrator 29.8.1, SVG Export Plug-In . SVG Version: 2.1.1 Build 2)  -->
  <defs>
    <style>
      .st0 {
        fill: #e02727;
      }

      .st1 {
        isolation: isolate;
      }

      .st2 {
        fill: #fff;
      }
    </style>
  </defs>
  <g id="Layer_1-2">
    <g>
      <g class="st1">
        <g class="st1">
          <path class="st2" d="M3.2,73.4V2h41.7c18.9,0,28.8,7.9,28.8,21.9s-5.7,18-19.3,19.7v1.1c7.4,1.9,9.7,5.4,12.4,10.9l8.9,17.9h-23.1l-8.5-17.5c-2.6-5.3-4.7-6.8-12.5-6.8h-8.2v24.3H3.2ZM23.3,34.2h21.4c5.9,0,8-1.1,8-7.1s-2.1-7-8-7h-21.4v14.2Z"/>
        </g>
        <g class="st1">
          <path class="st2" d="M77.3,37.7C77.3,15.4,92.1.9,116.9.9s40,14.5,40,36.8-14.5,36.8-40,36.8-39.6-14.5-39.6-36.8ZM135.6,37.7c0-14.2-4.2-17.6-18.7-17.6s-18.2,3.4-18.2,17.6,3.7,17.6,18.2,17.6,18.7-3.4,18.7-17.6Z"/>
          <path class="st2" d="M164.3,73.4V2h20.1v53.4h41.3v18h-61.3Z"/>
          <path class="st2" d="M232.9,73.4V2h20.1v53.4h41.3v18h-61.3Z"/>
          <path class="st2" d="M301.6,73.4V2h20.1v71.5h-20.1Z"/>
          <path class="st2" d="M330.1,73.4V2h21.3l19.8,26.8,10.5,16.4h1.4l-1-15.6V2h20.1v71.5h-21.3l-21.1-27.5-9.1-14.1h-1.4l.9,13.7v27.9h-20.1Z"/>
          <path class="st2" d="M409.6,37.7c0-22.3,15.4-36.8,41.4-36.8s38.6,10.7,38.6,28.4v.7h-22.4v-.7c0-6.6-4.1-9.2-16.7-9.2s-19.5,3.4-19.5,17.6,3.9,17.6,18.5,17.6,19.1-.7,20.1-6.2h-22v-14.7h42.2v39h-18.7v-15.3h-1.1c-1.9,8.3-8,16.3-24.7,16.3s-35.6-14.5-35.6-36.8Z"/>
        </g>
      </g>
      <g class="st1">
        <g class="st1">
          <path class="st0" d="M522.6,56.4v-24.4h-11.5v-8.2h32.2v8.2h-11.5v24.4h-9.1Z"/>
          <path class="st0" d="M546.4,56.4V23.8h9.1v12.1h15.2v-12.1h9.1v32.6h-9.1v-12.3h-15.2v12.3h-9.1Z"/>
          <path class="st0" d="M583.8,56.4V23.8h28.9v8.2h-19.8v3.9h19.1v8.2h-19.1v4.1h19.8v8.2h-28.9Z"/>
        </g>
      </g>
      <g class="st1">
        <g class="st1">
          <path class="st2" d="M638.3,38.2c0-26.6,15.8-37.3,36.6-37.3s33.9,9.8,33.9,24.5v1h-22.4v-1c0-4.9-3.4-5.3-11.5-5.3s-15,1.6-15,14.1v3.8h1.4c3.2-4.7,9.9-8.7,22-8.7,17.7,0,27.3,6.5,27.3,21.4s-11.4,23.8-33.6,23.8-38.6-11.6-38.6-36.3ZM689.4,49.2c0-4.7-2.2-6.3-13.7-6.3s-14.7,1.6-14.7,6.3,2.2,6,14.7,6,13.7-1.8,13.7-6Z"/>
          <path class="st2" d="M718.2,73.4V2h20.1v71.5h-20.1Z"/>
          <path class="st2" d="M742.4,73.4l27-35.1v-1.4l-27-35h26.2l17.3,23.1h1.4l16.3-23.1h26.2l-26.9,35.4v1.4l26.9,34.7h-26.2l-17.2-23.3h-1.4l-16.4,23.3h-26.2Z"/>
        </g>
      </g>
    </g>
  </g>
</svg>