<svg width="75" height="75" viewBox="0 0 75 75" fill="none" xmlns="http://www.w3.org/2000/svg">
<g clip-path="url(#clip0_153_494)">
<path d="M74.733 49.376L52.3686 0H29.1621L32.4274 22.6014L8.76917 29.9532L0.24644 49.415C-0.657174 51.4821 0.944688 53.7636 3.30641 53.7636H71.6936C74.0759 53.7636 75.6572 51.4626 74.733 49.3955V49.376Z" fill="#E31F26"/>
<path d="M63.5829 74.8557C68.9456 74.0291 72.5872 69.2311 71.7167 64.1389C70.8462 59.0467 65.7933 55.5888 60.4306 56.4153C55.0679 57.2419 51.4263 62.04 52.2968 67.1322C53.1672 72.2244 58.2202 75.6823 63.5829 74.8557Z" fill="#E31F26"/>
<path d="M19.6474 74.8504C25.0101 74.0238 28.6517 69.2257 27.7813 64.1335C26.9108 59.0413 21.8578 55.5834 16.4951 56.41C11.1324 57.2365 7.49081 62.0346 8.36129 67.1268C9.23178 72.219 14.2848 75.6769 19.6474 74.8504Z" fill="#E31F26"/>
</g>
<defs>
<clipPath id="clip0_153_494">
<rect width="75" height="75" fill="white"/>
</clipPath>
</defs>
</svg>
