<svg width="75" height="75" viewBox="0 0 75 75" fill="none" xmlns="http://www.w3.org/2000/svg">
<g clip-path="url(#clip0_153_482)">
<path d="M6.70971 53.7441H71.8506C74.1002 53.7441 75.626 51.4625 74.7653 49.3954L66.6471 29.9337L44.1119 22.5819L47.2222 -0.0195312H25.1174L3.83413 49.3759C2.93428 51.443 4.46011 53.7441 6.72928 53.7441H6.70971Z" fill="#E31F26"/>
<path d="M10.5111 74.9149C15.6473 74.2844 19.2983 69.6226 18.6658 64.5024C18.0333 59.3823 13.3569 55.7427 8.22077 56.3732C3.08459 57.0037 -0.566389 61.6655 0.0660736 66.7856C0.698536 71.9058 5.37494 75.5454 10.5111 74.9149Z" fill="#E31F26"/>
<path d="M29.2672 74.9108C34.4034 74.2803 38.0544 69.6185 37.4219 64.4984C36.7894 59.3782 32.113 55.7387 26.9769 56.3691C21.8407 56.9996 18.1897 61.6614 18.8222 66.7816C19.4546 71.9017 24.131 75.5413 29.2672 74.9108Z" fill="#E31F26"/>
<path d="M55.997 67.7906C57.1857 62.7698 54.0664 57.7389 49.0298 56.5538C43.9932 55.3688 38.9466 58.4784 37.7579 63.4992C36.5691 68.5201 39.6884 73.551 44.725 74.736C49.7616 75.9211 54.8082 72.8115 55.997 67.7906Z" fill="#E31F26"/>
<path d="M65.6299 74.9805C70.8048 74.9805 75 70.7984 75 65.6396C75 60.4808 70.8048 56.2987 65.6299 56.2987C60.4549 56.2987 56.2598 60.4808 56.2598 65.6396C56.2598 70.7984 60.4549 74.9805 65.6299 74.9805Z" fill="#E31F26"/>
</g>
<defs>
<clipPath id="clip0_153_482">
<rect width="75" height="75" fill="white"/>
</clipPath>
</defs>
</svg>
