<svg width="99" height="30" viewBox="0 0 99 30" fill="none" xmlns="http://www.w3.org/2000/svg">
<g clip-path="url(#clip0_294_102)">
<path d="M15.4191 10.1736C12.8105 10.1736 10.6856 12.2645 10.6856 14.8313H11.0321C11.0321 17.2108 13.001 19.1481 15.4191 19.1481C17.8373 19.1481 19.8061 17.2108 19.8061 14.8313H20.1526C20.1526 12.2645 18.0277 10.1736 15.4191 10.1736ZM19.4215 14.8313C19.4215 17.001 17.6278 18.7696 15.4191 18.7696C13.2104 18.7696 11.4168 17.0047 11.4168 14.8313H11.7633C11.7633 12.8491 13.4046 11.234 15.4191 11.234C17.4336 11.234 19.0749 12.8491 19.0749 14.8313H19.4215Z" fill="white"/>
<path d="M15.4191 8.8772C12.0832 8.8772 9.36801 11.5489 9.36801 14.8315H9.48226C9.48226 18.0503 12.1441 20.6734 15.4191 20.6734C18.6941 20.6734 21.356 18.0541 21.356 14.8315H21.4703C21.4703 11.5489 18.7551 8.8772 15.4191 8.8772ZM20.7391 14.8315C20.7391 17.7168 18.3514 20.0663 15.4191 20.0663C12.4869 20.0663 10.0992 17.7168 10.0992 14.8315H10.2134C10.2134 12.0061 12.5478 9.70907 15.4191 9.70907C18.2905 9.70907 20.6248 12.0061 20.6248 14.8315H20.7391Z" fill="white"/>
<path d="M15.4191 7.19824C11.1426 7.19824 7.66197 10.6232 7.66197 14.8313H7.54773C7.54773 19.1031 11.0779 22.5805 15.4229 22.5805C19.768 22.5805 23.2982 19.1068 23.2982 14.8313H23.1839C23.1839 10.6232 19.7033 7.19824 15.4268 7.19824H15.4191ZM22.4451 14.8313C22.4451 18.6422 19.292 21.7448 15.4191 21.7448C11.5463 21.7448 8.39314 18.6422 8.39314 14.8313H8.27889C8.27889 10.9567 11.4815 7.80529 15.4191 7.80529C19.3567 7.80529 22.5594 10.9567 22.5594 14.8313H22.4451Z" fill="white"/>
<path d="M30.4879 14.8314C30.4879 6.65126 23.7285 0 15.4191 0C7.10978 0 0.34654 6.65126 0.34654 14.8314H0C0 23.1951 6.91557 30.0037 15.4191 30.0037C23.9227 30.0037 30.8383 23.1988 30.8383 14.8314H30.4917H30.4879ZM29.7567 14.8314C29.7567 22.6105 23.3248 28.9395 15.4191 28.9395C7.51344 28.9395 1.0777 22.6105 1.0777 14.8314H0.731161C0.731161 6.8611 7.31923 0.378466 15.4191 0.378466C23.519 0.378466 30.1071 6.8611 30.1071 14.8314H29.7606H29.7567Z" fill="white"/>
<path d="M45.1378 19.534C44.1401 19.534 43.2223 19.3616 42.3845 19.0206C41.5467 18.6797 40.8651 18.1588 40.3472 17.4618C39.8293 16.7648 39.5475 15.8768 39.5094 14.8013H42.0799C42.0799 15.3447 42.217 15.7943 42.4911 16.1428C42.7653 16.4913 43.1309 16.7498 43.5917 16.9222C44.0525 17.0946 44.5628 17.177 45.1149 17.177C45.6671 17.177 46.1203 17.1096 46.5392 16.9709C46.9581 16.8323 47.2856 16.6337 47.5255 16.3751C47.7654 16.1166 47.8873 15.8093 47.8873 15.4533C47.8873 14.9812 47.7425 14.6102 47.4493 14.3404C47.1561 14.0706 46.6915 13.8233 46.0479 13.5985L43.2109 12.4855C42.1027 12.0584 41.2535 11.56 40.6632 10.9904C40.073 10.4246 39.7759 9.64143 39.7759 8.64842C39.7759 7.50178 40.2367 6.56873 41.1621 5.85677C42.0837 5.1448 43.3746 4.78882 45.0274 4.78882C46.6801 4.78882 47.8834 5.15604 48.7593 5.89424C49.639 6.63244 50.1379 7.65917 50.2559 8.97443H47.6854C47.5902 8.4161 47.3313 7.96644 46.9086 7.62919C46.4859 7.29194 45.8613 7.12332 45.0235 7.12332C44.2848 7.12332 43.7021 7.2732 43.2718 7.57673C42.8453 7.8765 42.6282 8.25872 42.6282 8.71587C42.6282 9.10933 42.7615 9.42034 43.0319 9.64892C43.3023 9.8775 43.7212 10.0986 44.2886 10.3084L47.4341 11.5075C48.4966 11.916 49.3153 12.4256 49.8827 13.0439C50.4501 13.6622 50.7357 14.4341 50.7357 15.3671C50.7357 16.2177 50.5187 16.9522 50.0807 17.5742C49.6466 18.1963 49.0107 18.6759 48.1767 19.0169C47.3427 19.3579 46.3259 19.5303 45.1302 19.5303L45.1378 19.534Z" fill="white"/>
<path d="M61.9659 19.5341C60.6864 19.5341 59.5592 19.2568 58.5805 18.706C57.6018 18.1551 56.8364 17.327 56.2804 16.2328C55.7244 15.1386 55.4502 13.7747 55.4502 12.1446C55.4502 10.5146 55.7282 9.1169 56.2804 8.03021C56.8325 6.94353 57.6018 6.13413 58.5805 5.59829C59.5592 5.06244 60.6864 4.79639 61.9659 4.79639C63.2454 4.79639 64.3841 5.06993 65.3666 5.62077C66.3491 6.16786 67.1183 6.98849 67.6705 8.07892C68.2227 9.16936 68.5007 10.5258 68.5007 12.1446C68.5007 13.7634 68.2227 15.1686 67.6705 16.2665C67.1183 17.3645 66.3491 18.1851 65.3666 18.7247C64.3841 19.2643 63.2492 19.5378 61.9659 19.5378V19.5341ZM61.9659 17.1996C63.1388 17.1996 64.0718 16.7649 64.7649 15.8918C65.4542 15.0187 65.8007 13.7634 65.8007 12.1184C65.8007 10.4734 65.4542 9.30051 64.7649 8.42367C64.0756 7.54308 63.1426 7.10466 61.9659 7.10466C60.7892 7.10466 59.8905 7.54682 59.1974 8.42741C58.5043 9.31175 58.1578 10.5483 58.1578 12.1409C58.1578 13.7334 58.5043 15.0262 59.1974 15.8956C59.8905 16.7649 60.8159 17.1996 61.9659 17.1996Z" fill="white"/>
<path d="M76.4216 5.07739V16.9822H82.3394V19.2268H73.8092V5.07739H76.4254H76.4216Z" fill="white"/>
<path d="M92.4652 19.5341C91.1857 19.5341 90.0585 19.2568 89.0798 18.706C88.1011 18.1551 87.3357 17.327 86.7797 16.2328C86.2237 15.1386 85.9495 13.7747 85.9495 12.1446C85.9495 10.5146 86.2275 9.1169 86.7797 8.03021C87.3319 6.94353 88.1011 6.13413 89.0798 5.59829C90.0585 5.06244 91.1857 4.79639 92.4652 4.79639C93.7448 4.79639 94.8834 5.06993 95.8659 5.62077C96.8484 6.16786 97.6176 6.98849 98.1698 8.07892C98.722 9.16936 99 10.5258 99 12.1446C99 13.7634 98.722 15.1686 98.1698 16.2665C97.6176 17.3645 96.8484 18.1851 95.8659 18.7247C94.8834 19.2643 93.7486 19.5378 92.4652 19.5378V19.5341ZM92.4652 17.1996C93.6381 17.1996 94.5711 16.7649 95.2642 15.8918C95.9535 15.0187 96.3 13.7634 96.3 12.1184C96.3 10.4734 95.9535 9.30051 95.2642 8.42367C94.5749 7.54308 93.642 7.10466 92.4652 7.10466C91.2885 7.10466 90.3898 7.54682 89.6967 8.42741C89.0036 9.31175 88.6571 10.5483 88.6571 12.1409C88.6571 13.7334 89.0036 15.0262 89.6967 15.8956C90.3898 16.7649 91.3152 17.1996 92.4652 17.1996Z" fill="white"/>
<path d="M43.7783 26.7735V22.749H44.3876V26.7735H43.7783Z" fill="white"/>
<path d="M52.0572 22.749H52.7541L54.7343 25.8704H54.6848V22.749H55.2941V26.7735H54.6467L52.5675 23.5135H52.6627V26.7735H52.0534V22.749H52.0572Z" fill="white"/>
<path d="M63.5844 22.749V26.2489H65.3475V26.7735H62.9751V22.749H63.5844Z" fill="white"/>
<path d="M72.4726 26.7735V22.749H73.0819V26.7735H72.4726Z" fill="white"/>
<path d="M80.7514 22.749H81.4483L83.4285 25.8704H83.379V22.749H83.9883V26.7735H83.341L81.2617 23.5135H81.3569V26.7735H80.7476V22.749H80.7514Z" fill="white"/>
<path d="M91.6579 26.7735V22.749H94.2284V23.2661H92.271V24.4915H94.1142V25.0086H92.271V26.2489H94.2284V26.7735H91.6579Z" fill="white"/>
<path d="M35.5375 0H34.8939V30H35.5375V0Z" fill="white"/>
</g>
<defs>
<clipPath id="clip0_294_102">
<rect width="99" height="30" fill="white"/>
</clipPath>
</defs>
</svg>
